<svg width="34" height="30" viewBox="0 0 34 30" fill="none" xmlns="http://www.w3.org/2000/svg">
<path d="M34 3.53296C32.7269 4.14554 31.3321 4.50914 29.9492 4.68658C31.4055 3.73997 32.4833 2.25851 33.0039 0.504708C31.6345 1.38682 30.1928 2.04503 28.6307 2.37934C27.2808 0.820714 25.4671 0 23.6406 0C21.8477 0 20.1346 0.656515 18.7611 2.05911C17.3437 3.5062 16.538 5.50813 16.5352 7.57062C16.5344 8.14462 16.6205 8.72311 16.7429 9.2957C11.1342 8.9904 5.93272 6.10156 2.39062 1.36992C1.74861 2.57001 1.39375 3.89543 1.39453 5.19128C1.39609 7.63202 2.51332 10.0122 4.51562 11.4641C3.4054 11.4283 2.29828 11.1861 1.32812 10.5989V10.7369C1.32916 14.3422 3.71771 17.3113 6.97266 18.0253C6.39757 18.1957 5.65179 18.3162 5.05284 18.3162C5.05077 18.3162 5.04869 18.3162 5.04688 18.3162C4.57866 18.3154 4.11044 18.2653 3.65234 18.1695C4.56621 21.2549 7.37498 23.5162 10.3594 23.5771C7.88937 25.6849 4.05078 26.6774 1.66068 26.6774C1.10556 26.6763 0.550964 26.6769 0 26.6053C3.18257 28.8227 6.88472 29.9941 10.6657 29.9941H10.6922V30C23.4414 30 30.5469 18.4554 30.5469 8.44654C30.5469 8.1187 30.501 7.75116 30.4805 7.42642C31.8457 6.3542 33.0633 5.05384 34 3.53296ZM26.7521 15.0184C25.9698 17.2699 24.8455 19.3045 23.4108 21.0659C21.8894 22.9335 20.0874 24.3998 18.0552 25.4235C15.9642 26.4769 13.655 27.043 11.1848 27.1092L10.6875 27.11H10.6657C10.522 27.11 10.3786 27.1081 10.2354 27.1041C10.8603 26.7295 11.4551 26.3102 12.0006 25.8446C13.3718 24.4617 13.9837 22.7099 14.2109 20.7711C14.2109 20.7711 13.0932 20.9186 11.8203 20.9093C10.8341 20.902 9.75497 20.8141 9.02969 20.4055C10.8346 19.5245 11.7832 18.0639 12.1692 16.2228C10.625 16.367 7.03906 15.5018 5.7527 14.3893C7.17188 13.8434 8.5 12.6898 9.03125 11.7525C9.03125 11.7525 6.50781 10.4547 4.72652 7.6723C8.18639 10.3527 12.3067 11.942 16.6101 12.1761L20.1211 12.3293L19.3948 8.94505L19.2591 8.27389C19.2135 8.00182 19.1911 7.77115 19.1914 7.57485C19.193 6.30463 19.6996 5.05976 20.5807 4.1599C21.4098 3.31327 22.4393 2.88405 23.6406 2.88405C24.528 2.88405 25.4043 3.21357 26.1316 3.80672C27.293 4.90288 27.8906 6.3449 27.8906 8.44654C27.8906 10.6031 27.4969 12.8757 26.7521 15.0184Z" fill="white"/>
</svg>
