<svg width="30" height="30" viewBox="0 0 30 30" fill="none" xmlns="http://www.w3.org/2000/svg">
<path d="M15.2958 30C15.1965 30 15.0972 30 14.9971 29.9995C12.6455 30.0053 10.4727 29.9455 8.35954 29.8169C6.42221 29.699 4.6538 29.0295 3.24521 27.881C1.88606 26.7728 0.957907 25.2743 0.486621 23.4276C0.0764495 21.82 0.0547049 20.2418 0.0338758 18.7154C0.018769 17.6202 0.00320447 16.3224 0 15.0027C0.00320447 13.6775 0.018769 12.3797 0.0338758 11.2845C0.0547049 9.75832 0.0764495 8.18018 0.486621 6.57228C0.957907 4.72565 1.88606 3.22716 3.24521 2.11891C4.6538 0.970377 6.42221 0.300896 8.35977 0.183022C10.4729 0.0546188 12.6462 -0.00534846 15.0029 0.000373602C17.3552 -0.00466181 19.5273 0.0546188 21.6405 0.183022C23.5778 0.300896 25.3462 0.970377 26.7548 2.11891C28.1142 3.22716 29.0421 4.72565 29.5134 6.57228C29.9235 8.17995 29.9453 9.75832 29.9661 11.2845C29.9812 12.3797 29.997 13.6775 30 14.9972V15.0027C29.997 16.3224 29.9812 17.6202 29.9661 18.7154C29.9453 20.2416 29.9238 21.8197 29.5134 23.4276C29.0421 25.2743 28.1142 26.7728 26.7548 27.881C25.3462 29.0295 23.5778 29.699 21.6405 29.8169C19.6168 29.94 17.5381 30 15.2958 30ZM14.9971 27.6558C17.3105 27.6613 19.4346 27.6029 21.4981 27.4775C22.963 27.3885 24.2331 26.9131 25.2736 26.0646C26.2354 25.2802 26.8978 24.1981 27.2423 22.8481C27.5838 21.5098 27.6035 20.0729 27.6225 18.6834C27.6374 17.5955 27.653 16.3069 27.6562 15C27.653 13.6928 27.6374 12.4044 27.6225 11.3166C27.6035 9.92701 27.5838 8.49008 27.2423 7.15158C26.8978 5.80163 26.2354 4.71947 25.2736 3.93509C24.2331 3.08685 22.963 2.61146 21.4981 2.52243C19.4346 2.39677 17.3105 2.33887 15.0026 2.3439C12.6897 2.33841 10.5654 2.39677 8.50191 2.52243C7.03701 2.61146 5.7669 3.08685 4.72636 3.93509C3.76456 4.71947 3.10215 5.80163 2.75767 7.15158C2.41617 8.49008 2.39648 9.92678 2.37749 11.3166C2.36261 12.4053 2.34704 13.6946 2.34384 15.0027C2.34704 16.305 2.36261 17.5946 2.37749 18.6834C2.39648 20.0729 2.41617 21.5098 2.75767 22.8481C3.10215 24.1981 3.76456 25.2802 4.72636 26.0646C5.7669 26.9128 7.03701 27.3882 8.50191 27.4773C10.5654 27.6029 12.6902 27.6615 14.9971 27.6558ZM14.9413 22.3242C10.9027 22.3242 7.61679 19.0386 7.61679 15C7.61679 10.9613 10.9027 7.67572 14.9413 7.67572C18.9801 7.67572 22.2658 10.9613 22.2658 15C22.2658 19.0386 18.9801 22.3242 14.9413 22.3242ZM14.9413 10.0195C12.1951 10.0195 9.96063 12.2538 9.96063 15C9.96063 17.7461 12.1951 19.9804 14.9413 19.9804C17.6877 19.9804 19.9219 17.7461 19.9219 15C19.9219 12.2538 17.6877 10.0195 14.9413 10.0195ZM23.0861 5.33196C22.1154 5.33196 21.3283 6.11886 21.3283 7.08978C21.3283 8.0607 22.1154 8.8476 23.0861 8.8476C24.0571 8.8476 24.844 8.0607 24.844 7.08978C24.844 6.11886 24.0571 5.33196 23.0861 5.33196Z" fill="white"/>
</svg>
